<svg xmlns="http://www.w3.org/2000/svg" xmlns:xlink="http://www.w3.org/1999/xlink" preserveAspectRatio="none" viewBox="-16 355.89 561.12 131" xmlns:v="https://vecta.io/nano"><g fill="#f5c557"><path d="M520.66 465.446h1.46v2.166h-1.46zm-3.109-3.9h1.601v1.919h-1.601zm.895-35.653h2.355v5.2h-3.862v-3.219h-.801v5.014h4.522v26.678h1.46v-34.725h-3.674zm0 1.981h.848v1.238h-.848zm-.895-50.219h1.601v1.919h-1.601zm-1.413 35.591h.801v-3.219h3.862v5.199h-2.355v1.053h3.674v-34.725h-1.46v26.678h-4.522zm2.308-1.238h.848v1.238h-.848zM3.382 465.446h1.46v2.166h-1.46zm266.081-89.896h3.72v5.014h-2.213v.805h3.721v-5.695h241.353v-2.166H268.568l-.003 5.075h.898zM6.349 461.546H7.95v1.919H6.349zm514.311-88.038h1.46v2.166h-1.46zM260.777 465.57h-3.72v-5.014h2.213v-.805h-3.721v5.695H9.458v2.166h252.214l.003-5.075h-.898zm10.193-3.033h.706v1.052h-.706zm3.721-2.786h-3.721v.805h2.213v5.014h-3.72v-3.033h-.898l.003 5.075h247.476v-2.166H274.691zm-16.127 2.786h.706v1.052h-.706zM-1.88 471.56h533v-102h-533v102zm3.755-8.095h2.967v-1.919H1.875V422.86h2.967v-1.568-1.465-1.567H1.875v-38.686h2.967v-1.919H1.875v-6.128h4.474v4.147H7.95v-4.147h255.23v4.023h1.714.452 1.714v-4.023h250.491v4.147h1.601v-4.147h4.474v6.128h-2.966v1.919h2.967v38.686h-2.967v1.568 1.465 1.568h2.967v38.686h-2.967v1.919h2.967v6.128h-4.474v-4.147h-1.601v4.147H267.06v-4.023h-1.714-.452-1.714v4.023H7.95v-4.147H6.349v4.147H1.875v-6.129z"/><path d="M6.208 412.008h.848v1.238h-.848zm.848 3.218H4.701v-5.199h3.862v3.219h.8v-5.014H4.842v-26.678h-1.46v34.725h3.674zm-3.674-41.718h1.46v2.166h-1.46zm267.588 4.023h.706v1.052h-.706zM9.363 427.874h-.8v3.219H4.701v-5.2h2.355v-1.052H3.382v34.725h1.46v-26.678h4.521zm-3.155 0h.848v1.238h-.848zm249.341-46.505h3.721v-.805h-2.213v-5.014h3.72v3.033h.898l-.003-5.075H9.458v2.166h246.091zm3.015-3.838h.706v1.052h-.706zM10.871 415.226H8.563v3.034H6.349v1.568 1.464 1.569h2.214v3.032h2.308v8.976H6.349v24.697h3.109v3.899h244.584v-5.694h6.735v2.785h2.407l-.003 3.033h1.713.452 1.713l-.003-3.033h2.407v-2.785h6.735v5.694h239.846v-3.899h3.109v-24.697h-4.522v-8.976h2.308v-3.032h2.214v-1.569-1.464-1.568h-2.214v-3.034h-2.308v-8.975h4.522v-24.697h-3.109v-3.899H276.198v5.694h-6.735v-2.785h-2.407l.003-3.033h-1.713-.452-1.713l.003 3.033h-2.407v2.785h-6.735v-5.694H9.458v3.899H6.349v24.697h4.522zm-4.522-37.571H7.95v1.919H6.349z"/></g><path d="M-1.88 369.56L-16 355.89v131l14.12-15.33z" fill="#94872e"/><path d="M531.12 369.56l14-13.67H-16l14.12 13.67z" fill="#f7de85"/><path d="M-1.88 471.56L-16 486.89h561.12l-14-15.33z" fill="#7a7825"/><path d="M531.12 369.56v102l14 15.33v-131z" fill="#8f7713"/><g fill="#133a3b"><path d="M6.349 465.446H7.95v4.147h255.23v-4.023h1.714.452 1.714v4.023h250.491v-4.147h1.601v4.147h4.474v-6.128h-2.966v-1.919h2.967V422.86h-2.967v-1.568-1.465-1.567h2.967v-38.686h-2.967v-1.919h2.967v-6.128h-4.474v4.147h-1.601v-4.147H267.06v4.023h-1.714-.452-1.714v-4.023H7.95v4.147H6.349v-4.147H1.875v6.128h2.967v1.919H1.875v38.686h2.967v1.568 1.465 1.568H1.875v38.686h2.967v1.919H1.875v6.128h4.474v-4.148zm514.311-91.938h1.46v2.166h-1.46v-2.166zM4.842 467.612h-1.46v-2.166h1.46v2.166zm3.108-4.147H6.349v-1.919H7.95v1.919zm253.722 4.147H9.458v-2.166H255.55v-5.695h3.721v.805h-2.214v5.014h3.721v-3.033h.897l-.003 5.075zm-2.402-5.075v1.052h-.706v-1.052h.706zm256.774 5.075H268.568l-.002-5.076h.897v3.033h3.721v-5.014h-2.214v-.805h3.721v5.695h241.354l-.001 2.167h0zm-245.074-4.023v-1.052h.706v1.052h-.706zm248.183-.124h-1.601v-1.919h1.601v1.919zm2.967 1.981v2.166h-1.46v-2.166h1.46zm0-40.605v34.724h-1.46v-26.678h-4.522v-5.014h.801v3.219h3.862v-5.199h-2.355v-1.052h3.674zm-3.674 4.271v-1.238h.848v1.238h-.848zm2.214-20.88v-26.678h1.46v34.725h-3.674v-1.052h2.355v-5.199h-3.862v3.219h-.801v-5.014h4.522v-.001zm-2.214 5.014v-1.238h.848v1.238h-.848zm-.895-35.591h1.601v1.919h-1.601v-1.919zm-248.983-4.147h247.477v2.166H274.691v5.695h-3.721v-.805h2.214v-5.014h-3.721v3.033h-.897l.002-5.075zm2.402 5.075v-1.052h.706v1.052h-.706zM9.458 373.508h252.215l.002 5.076h-.897v-3.034h-3.721v5.014h2.214v.805h-3.721v-5.695H9.458v-2.166zm249.812 4.023v1.052h-.706v-1.052h.706zm-252.921.124H7.95v1.919H6.349v-1.919zm0 3.899h3.109v-3.899h244.585v5.695h6.735v-2.785h2.406l-.003-3.033h1.713.452 1.713l-.003 3.033h2.406v2.785h6.735v-5.695h239.846v3.899h3.109v24.697h-4.522v8.975h2.308v3.033h2.214v1.568 1.465 1.568h-2.214v3.033h-2.308v8.975h4.522v24.697h-3.109v3.9H276.198v-5.695h-6.735v2.785h-2.406l.003 3.033h-1.713-.452-1.713l.003-3.033h-2.406v-2.785h-6.735v5.695H9.458v-3.9H6.349v-24.697h4.522v-8.975H8.563v-3.033H6.349v-1.568-1.465-1.567h2.214v-3.033h2.308v-8.975H6.349v-24.698zm.707 31.692h-.848v-1.238h.848v1.238zm-3.674-37.572v-2.166h1.46v2.166h-1.46zm0 40.605v-34.725h1.46v26.678h4.522v5.014h-.801v-3.219H4.701v5.199h2.355v1.052l-3.674.001h0zm1.46 43.287h-1.46v-34.724h3.674v1.052H4.701v5.199h3.862v-3.219h.801v5.014H4.842v26.678zm2.214-31.692v1.238h-.848v-1.238h.848zM212.31 409.89h-9.87v23h9.87a10.37 10.37 0 0 0 10.37-10.37v-2.25c0-5.73-4.64-10.38-10.37-10.38zm5.63 12.38c0 4.14-3.36 7.5-7.5 7.5h-3.88v-17.12h3.88a7.5 7.5 0 0 1 7.5 7.5v2.12z"/><use xlink:href="#B"/><use xlink:href="#B" x="58.625"/><path d="M248.685 409.89h15.875v2.76h-12.063v7.12h10.063v3.055h-10v9.695h-3.875zm17.812 0h18.063v2.943h-7v19.875h-4V412.77h-7.063zm59.813 6.53v-.71c0-3.18-2.2-5.82-5.37-5.82h-13.42v22.63h4.04v-8.69h6.72a3.24 3.24 0 0 1 3.24 3.24v5.45h5.16s-1.12-1.21-1.12-5.75-3.06-4.88-3.06-4.88c2.42-.69 3.81-2.83 3.81-5.47zm-4.54.93a3.42 3.42 0 0 1-3.42 3.42h-6.79v-8.04h6.79a3.42 3.42 0 0 1 3.42 3.42v1.2h0z"/></g><defs ><path id="B" d="M237.44 409.89h-5.38l-8.47 23h4.68l1.91-6.12h8.63l2.07 6.12h4.68l-8.12-23zm-6.07 13.94l2.57-8.12 1.62.01 2.12 8.11h-6.31z"/></defs></svg>