<svg xmlns="http://www.w3.org/2000/svg" preserveAspectRatio="none" viewBox="31.88 360.304 561.12 131" xmlns:v="https://vecta.io/nano"><path d="M46 373.974h533v102H46z" fill="#185053"/><path d="M257.208 437.768v-23.167h5l6.958 17.708 6.583-17.708h4.792v23.167h-3.25v-16.292l-6.792 16.917h-3.125l-6.666-16.875v16.271zm38.273-23.167h-3.44l-8.62 22.81h4l2.31-6.75h8.37l2.32 6.75h4.12l-9.06-22.81zm-5 13.06l3.5-8.56 3.62 8.56h-7.12zm29.727-6.06h3.417s.667-8.25-8.583-8.25-8.328 8.25-8.328 8.25.015 4.656 6.528 5.667c2.927.454 4.767 1.166 5.916 1.836 1.639.955 2.401 3.046 1.522 4.727-.626 1.197-2.087 2.256-5.355 2.061-1.699-.102-3.341-.825-4.411-2.148-1.08-1.337-1.539-2.828-1.539-3.141h-3.896s.872 7.392 7.763 8.417c8.41 1.25 11.422-3.208 11.478-5.833.126-4.958-.735-6.458-5.095-8-4.9-1.732-11.046-1.406-8.88-6.49 2.781-4.721 9.656-1.908 9.463 2.904zm8-7h4.25v16.078c0 2.103 1.388 4.014 3.434 4.502.664.158 1.455.253 2.4.253 5.667 0 5.333-4.333 5.333-4.333v-16.5h3.75v19.083s-.333 5.917-9.583 5.917-9.583-6.667-9.583-6.667l-.001-18.333h0zm24.208 0h4v10l10.625-10h5.75l-10.187 10 10.187 13.792h-5.25l-7.625-10.732-3.25 2.69v8.042h-4.25z" fill="#fff"/><path d="M46 373.974v102l-14.12 15.33v-131z" fill="#0f3834"/><path d="M593 360.304l-14 13.67H46l-14.12-13.67z" fill="#49a28c"/><path d="M593 491.304H31.88L46 475.974h533z" fill="#0d342e"/><path d="M593 360.304v131l-14-15.33v-102z" fill="#09261f"/><path d="M571.507 382.069v-6.128h-4.474v4.147h-1.601v-4.147H314.94v4.023h-1.714-.452-1.714v-4.023H55.83v4.147h-1.601v-4.147h-4.474v6.128h2.967v1.919h-2.967v38.686h2.967v1.568 1.465 1.568h-2.967v38.686h2.967v1.919h-2.967v6.128h4.474v-4.147h1.601v4.147h255.23v-4.023h1.714.452 1.714v4.023h250.491v-4.147h1.601v4.147h4.474v-6.128h-2.967v-1.919h2.967v-38.686h-2.967v-1.568-1.465-1.568h2.967v-38.687h-2.967v-1.919l2.968.001h0zm-2.967-4.147H570v2.166h-1.46v-2.166zM52.722 472.026h-1.46v-2.166h1.46v2.166zm512.709-89.957h1.601v1.919h-1.601v-1.919zm-248.983-4.147h247.477v2.166H322.571v5.695h-3.721v-.805h2.214v-5.014h-3.721v3.033h-.897l.002-5.075zm2.402 5.075v-1.052h.706v1.052h-.706zm-261.512-5.075h252.215l.002 5.076h-.897v-3.033h-3.721v5.014h2.214v.805h-3.721v-5.695H57.338v-2.167zm249.812 4.023v1.052h-.706v-1.052h.706zm-252.921.124h1.601v1.919h-1.601v-1.919zm-2.967-1.981v-2.166h1.46v2.166h-1.46zm0 40.605v-34.725h1.46v26.678h4.522v5.014h-.801v-3.219h-3.862v5.199h2.355v1.052h-3.674v.001zm3.674-4.271v1.238h-.848v-1.238h.848zm-2.214 20.88v26.678h-1.46v-34.724h3.674v1.052h-2.355v5.199h3.862v-3.219h.801v5.014h-4.522zm2.214-5.014v1.238h-.848v-1.238h.848zm.894 35.591h-1.601v-1.919h1.601v1.919zm253.722 4.147H57.338v-2.166H303.43v-5.695h3.721v.805h-2.214v5.014h3.721v-3.033h.897l-.003 5.075zm-2.402-5.075v1.052h-.706v-1.052h.706zm256.774 5.075H316.448l-.002-5.076h.897v3.033h3.721v-5.014h-2.214v-.805h3.721v5.695h241.354v2.167h-.001zm-245.074-4.023v-1.052h.706v1.052h-.706zm248.183-.124h-1.601v-1.919h1.601v1.919zm0-3.899h-3.109v3.9H324.078v-5.695h-6.735v2.785h-2.406l.003 3.033h-1.713-.452-1.713l.003-3.033h-2.407v-2.785h-6.735v5.695H57.338v-3.9h-3.109v-24.697h4.522v-8.975h-2.308v-3.033h-2.214v-1.568-1.465-1.568h2.214v-3.033h2.308v-8.975h-4.522v-24.698h3.109v-3.9h244.585v5.695h6.735v-2.785h2.407l-.003-3.033h1.713.452 1.713l-.003 3.033h2.407v2.785h6.735v-5.695h239.846v3.9h3.109v24.697h-4.522v8.975h2.308v3.033h2.214v1.568 1.465 1.568h-2.214v3.033h-2.308v8.975h4.522v24.698h-.001zm-.707-31.692h.848v1.238h-.848v-1.238zM570 469.86v2.166h-1.46v-2.166H570zm0-40.605v34.724h-1.46v-26.678h-4.522v-5.014h.801v3.219h3.862v-5.199h-2.355v-1.052c0 0 3.674 0 3.674 0zm0-43.287v34.724h-3.674v-1.052h2.355v-5.199h-3.862v3.219h-.801v-5.014h4.522v-26.678H570zm-3.674 31.692v-1.238h.848v1.238h-.848z" fill="#fab604"/></svg>