<svg xmlns="http://www.w3.org/2000/svg" xmlns:xlink="http://www.w3.org/1999/xlink" viewBox="0 0 1089.109 300.03" xmlns:v="https://vecta.io/nano"><style><![CDATA[.B{fill:#16610e}.C{fill:#1a7511}.D{fill:#40d31f}.E{fill:#11564c}.F{fill:#16736b}.G{fill:#e0bd64}]]></style><path d="M2532.382-385.324c-.246 1.751.879 3.801-1.125 5.171.353-1.729-.386-3.695 1.125-5.171z"/><defs><path id="A" d="M-664.584-1087.775s.061-.325.35-.781c.359-.566 1.266-1.273 3.527-1.596 0 0-.083-2 3.083-2.083l4.417-2.083s6.417-3.833 11.583-2.667c0 0 .5-1.083 2.75-1.333 0 0-.5-1.542.719-2.135s4.719 1.344 7.375-.594c0 0 .031-1.406 1.281-1.969 0 0 1.021-1.135 3.167-1.031s2.125.396 2.917.104 2.729-1.063 4.104-1.417l6.688-1.792 3.188-.833s.625-.208.875-.208 3.625-1.104 3.625-1.104 6.479-2.188 8.979-2.021 3.354.313 3.354.313 2.188-.625 4-1.25 4.729-1.104 5.958-.813c0 0 2.813-2.625 7.063-1.854l6.042-1c1.651-.5 3.526-1.5 4.307-1.719s2.828-.938 5.625.625l6.094-1.625s6.719-1.328 14.891-1.328c0 0 4.281-.859 6.219-.766s3.875-.125 8.609 1.078 9.813 3.922 11.766 4.969 6.328 3.734 6.328 3.734l.984 1 15.016 4.984.055.014s.535.676 2.618.794c1.641.159 2.024.4 2.494.759.565.482.776 1.159.859 1.406v.021l.1-.026s1.312.906 1.8 3.076c0 0 .771.588 1.029 1.641s.218 2.171.218 2.171.029 1.059.065 1.153c0 0 .853.747 1.059 1.512s.138 1.312-.059 1.859c0 0-.335.9-1.065 1.759 0 0-.135 1.365-1.235 2.353-1.147 1.029-3.1 1.612-3.1 1.612l-1.012 1.947s.682 1.294.588 2.241-.441 1.312-.441 1.312-.482.712-1.853 1.124c-1.112.229-1.688.488-2.641 1.247s-1.318 1.147-1.318 1.147-1.094 2.082-2.082 3.188l-.924 1.065-1.994 1.965-2.094 1.812-4.753 3.965s-.582 1.094-1.165 2.318-1.459 2.171-2.429 2.559c-.918.313-1.576.306-1.576.306l-1.029 1.394s.588 1.529-.012 3.071-1.812 1.471-1.812 1.471-1.576.106-2.506 1.294-1.235 2.976-1.694 3.482-6.435 6.6-6.435 6.6l-6.471 6.624s-.071 1.941-1.2 3.188-2.118 1.835-3.788 2.918c0 0-.165 1.388-1.141 2.659s-1.929 2.024-1.929 2.024-.494 2.871-.824 3.471-.271.753-1.165 1.576c0 0-.647 1.482-2.188 2.341-1.447.671-2.847.541-2.847.541l-.038.078s.506 1.176.235 2.247-.765 1.912-.765 1.912-1.1 1.812-1.276 2.306-.4 1.141-1.929 1.841-1.853 1-2.259 1.594l-.012.271s-.029 1.1-.424 2.018-.982 1.682-1.835 2.506-2.371 2.124-2.535 2.359l-.812 2.029s-.712 1.688-2.241 2.394l-2.941 4.524s-.612.676-.9 1.653l-.312.912c-.065.177-.371 1.176-.982 1.776-.576.529-.941.641-.941.641s-.459 1.047-.929 1.765-1.171 1.818-2.1 2.735-1.453 1.347-1.935 1.706c0 0 .471 1.42-.227 2.729 0 0-.231.618-.967 1.494l-1.282 1.494-.682.924s-2.047 3.794-2.047 3.794l-.818 1.5s-.153 1.247-1.182 2.576-2.912 2.324-2.912 2.324.106.371-.088.776c0 0 .482.982.335 2.029s-.929 2.182-.929 2.182-1.124 1.671-1.241 1.971c-.029.029-.424.435-.924 1.453s-.918 2.053-2.282 2.535c0 0-.253.082-.588.112 0 0-.082.671-.659 1.535-.747 1.071-1.865 1.147-1.865 1.147s.647 1.118.112 2.535-1.229 1.918-1.882 3.506l-2 1.606s.241.659.224.735-.176.288-.176.288.324.935-.729 2.235-1.688 2.106-1.359 3.418c0 0-.147 1.529.882 3.018.718.994 2.035 1.706 2.035 1.706l3.412 1.776s.365.076.741.5c0 0 1.124 1.041 1.488 2.906l.247 2.394s.694 1.576-.288 2.665c-.824.782-1.418.929-2.282 1.406s-.924.594-.924.594-.353 1.694-1.718 2.959c-1.724 1.7-3.259 2.476-4.418 4.182-.229.359-.553 1.6-2 2.941s-2.659 1.959-4.265 2.765c0 0-.653 1.241-2.012 2.824l-2.535 2.929c-.194.253-1.576 1.888-2.176 3.476 0 0 .106 1.335-.812 2.135-1.135.924-3.1.941-4.047 1.812 0 0-1.722 3.548-4.472 6.861l-3.828 4.031s-1.531 2.25-4.922 2.984c-3.172.578-5.578-.531-7.875-.969-2.234-.719-4.891-1.016-8.797-3.078 0 0-1.795-.865-4.848-2.688l-4.435-2.547c-.365-.171-1.659-.929-1.676-.941s-.153-.067-.241-.022-.616.3-1.106.48-1.061.359-1.924.476-1.943.012-2.865-.347c-.133-.047-.89-.357-1.612-.896-.09-.08-.473-.343-.927-.751l-.98-.961-.733-.806-1.453-1.651-1.115-1.165s-.615-.571-.768-.688c0 0-.262-.671-.485-1.479-.096-.434-.188-1.103-.209-1.288s-.053-1.226 0-1.6l.144-1.082s.456-1.803.679-2.338.706-1.712.971-2.247 1.106-2.412 1.106-2.412.694-1.447 1.082-2.629l1.159-2.594s.588-1.418.606-1.6.276-1.318.276-1.318-.351-1.91.802-3.627c.698-.91 1.263-1.192 1.263-1.192s.674-1.035 1.004-2.612l.769-2.071s1.035-1.271 1.263-1.373c0 0-.345-.8.18-1.875 0 0 .745-.894 1.396-1.396s1.184-1.067 1.388-1.757c.12-.675.18-2.22.533-4.306.071-.471.761-4.18 3.467-5.522l.953-.541s-1.259-.435-1.024-2c.047-.353.165-.588.165-.588s.388-.541 1.506-2.706c0 0 .663-1.408 2.329-1.682 0 0-.396-.333-.525-.502s-.384-.518-.306-1.082.545-1.188.596-1.294.341-.62.404-.757l.949-1.922.965-1.463 1.725-2.643c.047-.129.149-.714.2-1.275.059-.459.259-.969.416-1.133s.2-.298.725-.569c0 0 .173-1.373.451-1.855a2.02 2.02 0 0 1 1.341-1.051l.871-1.012.188-1.929.161-1.694.153-1.651 1.173-.988 2.333-1.969.671-2.137a50.75 50.75 0 0 1 .788-2.455c.094-.204.604-1.635 1.059-2.369.102-.188.612-1.059 1.102-1.659.231-.235.584-.722 1.384-1.376l.847-1.278 1.216-1.843 1.31-1.976 1.89-2.867c.09-.173.753-1.114.824-1.247l.937-2.467c.031-.047.686-1.533 1.353-2.247.125-.153.949-1.024 1.875-1.412.169-.047.616-.271.961-.349 0 0 .494-.251.82-.243 0 0-.831-2.133-.349-3.798 0 0 .318-1.265 1.312-2.212s1.524-1.265 3.065-2.012c0 0 .041-.665.182-.871 0 0 .194-1.665.912-2.982 0 0 .606-1.241 1.494-2.406s2.359-2.812 2.359-2.812.118-1.265 1.241-2.429 1.818-1.735 1.818-1.735-.059-.182-.041-.247.053-.324.053-.324l.141-.976s.465-1.535 1.194-2.329 1.318-.941 1.753-1.076c0 0-.512-1.118-.288-1.735s.841-.794.841-.794.547-.218 1.606-.488c1.094-.253 1.335-1.612 1.335-1.612l.312-1.376s.235-.929.941-1.365l.247-.124 2.453-2.824 1.347-1.565 1.353-1.776s-.271-.518.059-.829c.303-.232.5-.3.5-.3l2.482-2.824s.535-1.224.929-2.329 1.024-2.118 1.947-2.841c0 0 .324-1.229 1.994-1.806l.894-1.353 1.918-2.871s.253-1.176 1.024-1.8 1.082-.735 2.806-1.447 2.224-1.4 2.3-1.571c0 0-.086-2.604.424-3.553 0 0 .408-.839.541-.925l2.376-2.173 1.624-1.451s-.259-1.608 1.537-2.533 1.286-.408 2.58-1.443l2.039-2.808.933-1.318s.933-1.373 1.733-2.141c.643-.722 1.435-1.506 2.549-2.471a25.16 25.16 0 0 0 3.247-3.506c.651-.91 1.224-2.29 1.475-2.996 0 0-7.797 1.946-11.703 2.259 0 0-6.625.969-9.563 1.906l-7.438 1.75s-4.625 1.063-8.344 1.563-12.844 3.625-13.875 3.813-4.813 1.688-9.469 2.219c-4.406.875-8.281 4.531-12.5 5.313 0 0-1.406.063-1.875.219s-.905.489-1.317.489-4.859-.859-5.106-.941-6.741-1.376-6.835-1.376c0 0-.871-1.635-3.188-2.635-2.165-.824-3.894-.012-5.341-1.318 0 0-.6-.576-.647-1.659 0 0-.965-1.859-2.529-2s-2.259 1.894-4.365 1.671c-2.118-.282-2.424-3.635-3.318-4.506 0 0-.165-.341-.776-.606-.676-.424-1.918-1.371-2.647-2.547s-.894-2.2-.894-2.2-.365-1.851-.318-2.949l.039-.973v-.02"/></defs><clipPath id="B"><use xlink:href="#A"/></clipPath><path d="M-512.622-1078.987c1.309 1.078 1.263 2.105-.171 2.999-1.133.706-1.737.301-1.808-.996l1.979-2.003z" clip-path="url(#B)" fill="#f7d85d"/><linearGradient id="C" gradientUnits="userSpaceOnUse" x1="953.555" y1="179.222" x2="1064.125" y2="179.222"><stop offset="0" stop-color="#aa6c14"/><stop offset=".794" stop-color="#c49b3d"/><stop offset="1" stop-color="#cba848"/></linearGradient><path d="M1057.195 155.687s.5-6.31-5.12-5.25c-3.44.81-4.88 2.69-4.88 2.69s.69-7.19-4.56-8c-1.37-.12-4.31 3.38-4.31 3.38s1.25-7.13-3.88-6.69c-1.44.25-2.56 4.12-2.56 4.12s-.94-7.19-6.38-4.87c-5.43 2.31-3.5 5.06-3.5 5.06s1.26 1.62 5.63-2.94c0 0-.69 5.56 1.69 5.82 2.37.24 6.12-2.69 6.12-2.69s.65 2.1-.18 3.56c-.84 1.46.5 2.67 1.87 2.37 1.37-.29 3.96-1.33 4.37-2.12 0 0 .96 2.71-1.08 4.46-.46.79 3.25 2.62 5.21 1.5 0 0 .25.62.25 1 0 .37 5.46 1.58 6.54-3.75 0 0 1.38 2.83 1.25 3.91 0 0 1.13.21 1.25-.08 0 0 .29 5.13-3.29 7.04 0 0 1.33 7.34-5.75 7.67s-8.63-2.29-10.54-3.08c-1.92-.79-4.96-1.05-6.13 1.08 0 0-.54-3.04 3.38-3.96 3.91-.91 8.41 1.17 8.41 1.17s4.8 1.33 5.25-2.29c0 0-7.04 1.29-10.08-.71-3.02-1.99-10.75-.85-11.45.4.12-.29 1.85-4.12 6.7-3.36 5.04.79 5.67-.12 5.67-.12s-3.75-1.63-6.63-4.84c-2.87-3.21-10.54-5.87-14.33-2.87s-4.33 6.29-2.62 10.08c1.7 3.79 6 7.46 13.95 12.13 7.96 4.66 22.54 13.81 26.17 29.06s2.56 27.06-8.19 41c-7.31 9.49-18.73 12.43-25.43 14.34a31.98 31.98 0 0 1-8.75 1.22l-44.84-.86-12.87-.25v-.64s1.5.1 12.87.11l28.84-.11c38.12-.25 54.37-17.37 57-41.5 2.62-24.13-21.88-36.63-24.76-37.87-2.87-1.26-19-12.63-19.37-21-.37-8.38 10.87-10.76 10.87-10.76-.37-1.37-.24-6.87 5.38-9.87s12.62 1.5 21.5 6.13c8.88 4.62 12.25.87 12.25.87s-16.44-4.58-22.58-16.92c-6.15-12.34-22.5-8.83-22.5-8.83s-9.17 2.83-13.17 6c0 0-10.67-.67-13.17 1 0 0 3.84 6.67 2.34 10.17s-6.17 13.83-2.34 22.5c0 0 .17 8.08 20.55 23.45 20.37 15.38 11.87 35.13 10.5 37.5-1.38 2.38-7.13 10.38-24.26 9-17.12-1.37-21.87-12-21.87-12s-4.13-11.12-4.13-32.5c0-21.37-1.08-47.02-1.08-47.02l2.29.4v29c0 5.5 5.42 37.25 5.05 44.75.01 1.63 2.2.42 2.2.42s-3.08 4.71 2.42 7.58c1.31.44 2.56-2 2.56-2s2 6.31 5.56 6.25c0 0 1.88-.62 2.44-3 0 0 2.5 6.81 7.38 5.06 0 0 1.42-1.29.03-2.78.38.37 4.5 4.21 8.84 1.66 1.23-1.06-1.12-2.73-1.4-2.93.7.09 12.07 1.63 9.59-1.89-1.31-1.62-2.69-2.06-2.69-2.06s5.75-.94 6.07-4.87c0-2-2.26-2.63-2.82-2.57 0 0 3.82-5.31 1.88-8.56-1.38-1.25-.56.82-3.32.69 0 0 1.63-7.31.13-8.37-1.5-1.07-2.56.56-3.44.62 0 0 1.13-7.31-1.06-7.94-2.19-.62-2.75 1.63-4.44 1.69 0 0 .63-8.75-3.81-9.5-1.75-.44-3.19 2.19-3.75 2.37 0 0 .13-9.18-4.81-8.62-1.88.44-3.06 2.12-3.06 2.12s.68-8.37-2.38-9.81c-1.75-1.06-2.38.88-5.19.75 0 0 4.13-4.81 2-10-.62-1.31-4.75-.62-4.75-.62s6.06-6.06 5-9.25c-.56-1.25-3.68-.94-5.18-1.63 0 0 8.12-4.12 8.43-10.68.31-6.57-6.06-4.82-7.43-3.19 0 0 1.12-6.38 8.62-8.94 3.88-1.13 8.56 3.56 14.25-2 2.25-2.5 10.56-2.13 10.56-2.13s-2.12-3.43-9.62-1.81c-7.5 1.63-15.94-3.93-16.81-8.56 0 0 6.37 5.31 13.43 5 7.07-.31 14-.44 15.44.56 0 0-1.19-2.93-7.94-2.93s-19.31-4.63-16.81-12.69c0 0 .69 6.31 9.81 6.75 9.13.44 18 0 21.31 2.12 3.32 2.13 8.57 6.38 8.76 12.25 0 0 7.68 3.31 10.68 12.5 1.44 3.94 11.82 11.69 15.82 9.57 4-2.13 6.71.06 7.63 2.68.93 2.63-.89 11.32-6.7 12.5z" fill="url(#C)"/><path d="M997.485 156.637c3.25 8.56 8 19.29 26.75 30.67 18.75 11.39 23 33.14 10 45.14s-54.62 10.86-67.81 2.18v-96.9s1.08 25.65 1.08 47.02c0 21.38 4.13 32.5 4.13 32.5s4.75 10.63 21.87 12c17.13 1.38 22.88-6.62 24.26-9 1.37-2.37 9.87-22.12-10.5-37.5-20.38-15.37-20.55-23.45-20.55-23.45-3.83-8.67.84-19 2.34-22.5s-2.34-10.17-2.34-10.17c2.5-1.67 13.17-1 13.17-1 4-3.17 13.17-6 13.17-6s16.35-3.51 22.5 8.83c6.14 12.34 22.58 16.92 22.58 16.92s-11.62 1.33-30.65-14.18c-12.5-7.94-20 7.79-20 7.79s-13.25 9.1-10 17.65z" class="E"/><path d="M1058.135 145.377s-3.37 3.75-12.25-.87c-8.88-4.63-15.88-9.13-21.5-6.13s-5.75 8.5-5.38 9.87c0 0-11.24 2.38-10.87 10.76.37 8.37 16.5 19.74 19.37 21 2.88 1.24 27.38 13.74 24.76 37.87-2.63 24.13-18.88 41.25-57 41.5l-28.84.11v-24.86c13.19 8.68 54.81 9.82 67.81-2.18s8.75-33.75-10-45.14c-18.75-11.38-23.5-22.11-26.75-30.67-3.25-8.55 10-17.65 10-17.65s7.5-15.73 20-7.79c19.03 15.51 30.65 14.18 30.65 14.18z" class="F"/><linearGradient id="D" gradientUnits="userSpaceOnUse" x1="133.617" y1="179.222" x2="23.047" y2="179.222"><stop offset="0" stop-color="#aa6c14"/><stop offset=".794" stop-color="#c49b3d"/><stop offset="1" stop-color="#cba848"/></linearGradient><path d="M29.977 155.687s-.5-6.31 5.12-5.25c3.44.81 4.88 2.69 4.88 2.69s-.69-7.19 4.56-8c1.37-.12 4.31 3.38 4.31 3.38s-1.25-7.13 3.88-6.69c1.44.25 2.56 4.12 2.56 4.12s.94-7.19 6.38-4.87c5.43 2.31 3.5 5.06 3.5 5.06s-1.26 1.62-5.63-2.94c0 0 .69 5.56-1.69 5.82-2.37.24-6.12-2.69-6.12-2.69s-.65 2.1.18 3.56c.84 1.46-.5 2.67-1.87 2.37-1.37-.29-3.96-1.33-4.37-2.12 0 0-.96 2.71 1.08 4.46.46.79-3.25 2.62-5.21 1.5 0 0-.25.62-.25 1 0 .37-5.46 1.58-6.54-3.75 0 0-1.38 2.83-1.25 3.91 0 0-1.13.21-1.25-.08 0 0-.29 5.13 3.29 7.04 0 0-1.33 7.34 5.75 7.67s8.63-2.29 10.54-3.08c1.92-.79 4.96-1.05 6.13 1.08 0 0 .54-3.04-3.38-3.96-3.91-.91-8.41 1.17-8.41 1.17s-4.8 1.33-5.25-2.29c0 0 7.04 1.29 10.08-.71 3.02-1.99 10.75-.85 11.45.4-.12-.29-1.85-4.12-6.7-3.36-5.04.79-5.67-.12-5.67-.12s3.75-1.63 6.63-4.84c2.87-3.21 10.54-5.87 14.33-2.87s4.33 6.29 2.62 10.08c-1.7 3.79-6 7.46-13.95 12.13-7.96 4.66-22.54 13.81-26.17 29.06s-2.56 27.06 8.19 41c7.31 9.49 18.73 12.43 25.43 14.34a31.98 31.98 0 0 0 8.75 1.22l44.84-.86 12.87-.25v-.64s-1.5.1-12.87.11c-6.21 0-15.37-.02-28.84-.11-38.12-.25-54.37-17.37-57-41.5-2.62-24.13 21.88-36.63 24.76-37.87 2.87-1.26 19-12.63 19.37-21 .37-8.38-10.87-10.76-10.87-10.76.37-1.37.24-6.87-5.38-9.87s-12.62 1.5-21.5 6.13c-8.88 4.62-12.25.87-12.25.87s16.44-4.58 22.58-16.92c6.15-12.34 22.5-8.83 22.5-8.83s9.17 2.83 13.17 6c0 0 10.67-.67 13.17 1 0 0-3.84 6.67-2.34 10.17s6.17 13.83 2.34 22.5c0 0-.17 8.08-20.55 23.45-20.37 15.38-11.87 35.13-10.5 37.5 1.38 2.38 7.13 10.38 24.26 9 17.12-1.37 21.87-12 21.87-12s4.13-11.12 4.13-32.5c0-21.37 1.08-47.02 1.08-47.02l-2.29.4v29c0 5.5-5.42 37.25-5.05 44.75-.01 1.63-2.2.42-2.2.42s3.08 4.71-2.42 7.58c-1.31.44-2.56-2-2.56-2s-2 6.31-5.56 6.25c0 0-1.88-.62-2.44-3 0 0-2.5 6.81-7.38 5.06 0 0-1.42-1.29-.03-2.78-.38.37-4.5 4.21-8.84 1.66-1.23-1.06 1.12-2.73 1.4-2.93-.7.09-12.07 1.63-9.59-1.89 1.31-1.62 2.69-2.06 2.69-2.06s-5.75-.94-6.07-4.87c0-2 2.26-2.63 2.82-2.57 0 0-3.82-5.31-1.88-8.56 1.38-1.25.56.82 3.32.69 0 0-1.63-7.31-.13-8.37 1.5-1.07 2.56.56 3.44.62 0 0-1.13-7.31 1.06-7.94 2.19-.62 2.75 1.63 4.44 1.69 0 0-.63-8.75 3.81-9.5 1.75-.44 3.19 2.19 3.75 2.37 0 0-.13-9.18 4.81-8.62 1.88.44 3.06 2.12 3.06 2.12s-.68-8.37 2.38-9.81c1.75-1.06 2.38.88 5.19.75 0 0-4.13-4.81-2-10 .62-1.31 4.75-.62 4.75-.62s-6.06-6.06-5-9.25c.56-1.25 3.68-.94 5.18-1.63 0 0-8.12-4.12-8.43-10.68-.31-6.57 6.06-4.82 7.43-3.19 0 0-1.12-6.38-8.62-8.94-3.88-1.13-8.56 3.56-14.25-2-2.25-2.5-10.56-2.13-10.56-2.13s2.12-3.43 9.62-1.81c7.5 1.63 15.94-3.93 16.81-8.56 0 0-6.37 5.31-13.43 5-7.07-.31-14-.44-15.44.56 0 0 1.19-2.93 7.94-2.93s19.31-4.63 16.81-12.69c0 0-.69 6.31-9.81 6.75-9.13.44-18 0-21.31 2.12-3.32 2.13-8.57 6.38-8.76 12.25 0 0-7.68 3.31-10.68 12.5-1.44 3.94-11.82 11.69-15.82 9.57-4-2.13-6.71.06-7.63 2.68-.93 2.63.89 11.32 6.7 12.5z" fill="url(#D)"/><path d="M89.687 156.637c-3.25 8.56-8 19.29-26.75 30.67-18.75 11.39-23 33.14-10 45.14s54.62 10.86 67.81 2.18v-96.9s-1.08 25.65-1.08 47.02c0 21.38-4.13 32.5-4.13 32.5s-4.75 10.63-21.87 12c-17.13 1.38-22.88-6.62-24.26-9-1.37-2.37-9.87-22.12 10.5-37.5 20.38-15.37 20.55-23.45 20.55-23.45 3.83-8.67-.84-19-2.34-22.5s2.34-10.17 2.34-10.17c-2.5-1.67-13.17-1-13.17-1-4-3.17-13.17-6-13.17-6s-16.35-3.51-22.5 8.83c-6.14 12.34-22.58 16.92-22.58 16.92s11.62 1.33 30.65-14.18c12.5-7.94 20 7.79 20 7.79s13.25 9.1 10 17.65z" class="E"/><path d="M29.037 145.377s3.37 3.75 12.25-.87c8.88-4.63 15.88-9.13 21.5-6.13s5.75 8.5 5.38 9.87c0 0 11.24 2.38 10.87 10.76-.37 8.37-16.5 19.74-19.37 21-2.88 1.24-27.38 13.74-24.76 37.87 2.63 24.13 18.88 41.25 57 41.5l28.84.11v-24.86c-13.19 8.68-54.81 9.82-67.81-2.18s-8.75-33.75 10-45.14c18.75-11.38 23.5-22.11 26.75-30.67 3.25-8.55-10-17.65-10-17.65s-7.5-15.73-20-7.79c-19.03 15.51-30.65 14.18-30.65 14.18z" class="F"/><path d="M946.235 60.842l22.564-21.125v220.591l-22.729-22.729z" class="E"/><path d="M141.233 60.842L118.67 38.867v221.648l22.729-22.735z" fill="#14685e"/><path d="M968.799 39.717l-22.092 20.676H140.196L118.67 38.867zm0 219.948l-22.092-20.676H140.196l-21.526 21.526z" class="F"/><path d="M141.411 60.842h808.09v179.859h-808.09z" fill="#00322c"/><path d="M954.318 60.842V48.148h-9.269v8.591h-3.317v-8.591H548.146v8.334h-3.551-.937-3.551v-8.334H146.521v8.591h-3.317v-8.591h-9.269v12.694h6.147v3.975h-6.147v80.139h6.147v3.248 3.035 3.248h-6.147v80.139h6.147v3.975h-6.147v12.694h9.269v-8.591h3.317v8.591h393.586v-8.334h3.551.937 3.551v8.334h393.586v-8.591h3.317v8.591h9.269V238.6h-6.147v-3.975h6.147v-80.139h-6.147v-3.248-3.035-3.248h6.147V64.817h-6.147v-3.975h6.147zm-6.146-8.591h3.025v4.488h-3.025v-4.488zm-808.09 194.94h-3.025v-4.488h3.025v4.488zm801.65-186.349h3.317v3.975h-3.317v-3.975zm-390.464-8.591H938.61v4.488H563.952v11.796h-7.708v-1.667h4.586V56.482h-7.708v6.283h-1.858l.004-10.514zm4.976 10.514v-2.18h1.464v2.18h-1.464zM149.643 52.251h387.341l.005 10.514h-1.858v-6.283h-7.708v10.386h4.586v1.667h-7.708V56.739H149.643v-4.488zm382.366 8.334v2.18h-1.464v-2.18h1.464zm-388.805.257h3.317v3.975h-3.317v-3.975zm-6.147-4.103v-4.488h3.025v4.488h-3.025zm0 84.113V68.92h3.025v55.264h9.366v10.386h-1.659v-6.667h-8v10.771h4.878v2.18h-7.61zm7.61-8.847v2.564h-1.756v-2.564h1.756zm-4.585 43.253v55.264h-3.025V158.59h7.61v2.18h-4.878v10.771h8v-6.668h1.659v10.386h-9.366zm4.585-10.386v2.564h-1.756v-2.564h1.756zm1.854 73.728h-3.317v-3.975h3.317v3.975zm390.464 8.591H149.643v-4.488h374.658v-11.796h7.708v1.667h-4.586v10.386h7.708v-6.283h1.858l-.004 10.514zm-4.976-10.515v2.18h-1.464v-2.18h1.464zm406.601 10.515H551.268l-.005-10.514h1.858v6.283h7.708v-10.386h-4.586v-1.667h7.708v11.796H938.61v4.488zm-382.366-8.335v-2.18h1.464v2.18h-1.464zm388.805-.256h-3.317v-3.975h3.317v3.975zm0-8.078h-6.439v8.078H567.074v-11.796h-13.952v5.77h-4.985l.007 6.283h-3.549-.937-3.549l.007-6.283h-4.985v-5.77h-13.952V238.6H149.643v-8.078h-6.439v-51.16h9.366V160.77h-4.781v-6.283h-4.586v-3.248-3.035-3.248h4.586v-6.283h4.781V120.08h-9.366V68.92h6.439v-8.078h371.536v11.796h13.952v-5.77h4.985l-.007-6.283h3.549.937 3.549l-.007 6.283h4.985v5.77h13.952V60.842H938.61v8.078h6.439v51.16h-9.366v18.592h4.781v6.283h4.586v3.248 3.035 3.248h-4.586v6.283h-4.781v18.592h9.366v51.161zm-1.463-65.65h1.756v2.564h-1.756v-2.564zm7.61 77.831v4.488h-3.025v-4.488h3.025zm0-84.114v71.932h-3.025v-55.264h-9.366v-10.386h1.659v6.668h8v-10.771h-4.878v-2.18h7.61zm0-89.669v71.932h-7.61v-2.18h4.878v-10.771h-8.001v6.667h-1.659v-10.386h9.366V68.92h3.026zm-7.61 65.649v-2.564h1.756v2.564h-1.756z" fill="#fab604"/><linearGradient id="E" gradientUnits="userSpaceOnUse" x1="361.078" y1="59.189" x2="735.078" y2="59.189"><stop offset="0" stop-color="#aa6c14"/><stop offset=".137" stop-color="#c69a43"/><stop offset=".307" stop-color="#ecd883"/><stop offset=".342" stop-color="#e2c972"/><stop offset=".434" stop-color="#cba64b"/><stop offset=".518" stop-color="#bb8d2e"/><stop offset=".591" stop-color="#b17d1d"/><stop offset=".645" stop-color="#ad7817"/><stop offset=".763" stop-color="#b58423"/><stop offset=".979" stop-color="#c9a444"/><stop offset="1" stop-color="#cba848"/></linearGradient><path d="M727.105 78.662H369.05c-4.403 0-7.973-3.569-7.973-7.973v-23c0-4.403 3.569-7.972 7.973-7.972h358.055c4.403 0 7.973 3.569 7.973 7.972v23c0 4.404-3.57 7.973-7.973 7.973z" fill="url(#E)"/><path d="M426.724 51.587c-1.301 0-2.489.093-3.632.282l-.209.035v14.78h2.371v-5.75c.401.063.836.074 1.255.074 1.963 0 3.601-.593 4.608-1.667.789-.812 1.188-1.912 1.188-3.27 0-1.321-.481-2.466-1.351-3.217-.934-.84-2.357-1.267-4.23-1.267zm-.172 7.417c-.532 0-.959-.032-1.298-.1v-5.232c.357-.064.902-.102 1.513-.102 1.183 0 3.168.336 3.168 2.588.001 1.809-1.233 2.846-3.383 2.846zm18.475 3.397c-.329-1.44-.922-2.391-1.807-2.888 1.522-.697 2.416-2.063 2.416-3.743 0-1.198-.435-2.242-1.222-2.938-.954-.861-2.298-1.246-4.36-1.246-1.343 0-2.704.114-3.641.306l-.2.041v14.751h2.371v-6.277h1.504c1.586.06 2.259.721 2.668 2.621.478 2.113.766 3.136.995 3.531l.072.125h2.498l-.198-.368c-.294-.543-.654-2.029-1.096-3.915zm-1.762-6.415c0 1.52-1.185 2.502-3.018 2.502h-1.664v-4.841c.324-.063.867-.12 1.596-.12 1.409.016 3.086.454 3.086 2.459zm13.773-4.528c-4.109 0-6.979 3.232-6.979 7.86 0 4.477 2.782 7.603 6.765 7.603 3.474 0 6.979-2.438 6.979-7.882-.001-4.534-2.719-7.581-6.765-7.581zm4.286 7.667c0 2.872-1.358 5.77-4.394 5.77-3.004 0-4.373-2.913-4.373-5.619 0-2.883 1.359-5.791 4.394-5.791 3.005-.001 4.373 2.923 4.373 5.64zm13.501 1.454h2.946v3.908c-.311.121-.982.3-2.244.3-3.294 0-5.34-2.145-5.34-5.598 0-3.439 2.137-5.576 5.576-5.576 1.549 0 2.472.321 3.102.602l.26.115.593-2.003-.191-.093c-.692-.334-2.033-.69-3.72-.69-4.82 0-8.075 3.106-8.098 7.731 0 2.257.765 4.289 2.098 5.577 1.397 1.334 3.226 1.982 5.591 1.982 1.883 0 3.505-.44 4.535-.81l.166-.06v-7.392h-5.273v2.007zm17.995 1.822c-.329-1.44-.922-2.391-1.807-2.888 1.522-.697 2.416-2.063 2.416-3.743 0-1.198-.435-2.242-1.222-2.938-.954-.861-2.298-1.246-4.36-1.246-1.343 0-2.704.114-3.641.306l-.2.041v14.751h2.371v-6.277h1.504c1.586.06 2.259.721 2.668 2.621.478 2.113.766 3.136.995 3.531l.072.125h2.498l-.198-.368c-.294-.543-.655-2.029-1.096-3.915zm-1.762-6.415c0 1.52-1.185 2.502-3.018 2.502h-1.664v-4.841c.324-.063.867-.12 1.596-.12 1.408.016 3.086.454 3.086 2.459zm9.164 3.905h5.633v-2.048h-5.633v-4.079h5.955v-2.07h-8.326v14.991h8.649v-2.07h-6.278zm15.599-1.903c-2.06-.797-2.721-1.419-2.721-2.562 0-.956.767-1.921 2.48-1.921a5.49 5.49 0 0 1 2.632.657l.261.143.678-2.004-.18-.103c-.489-.276-1.571-.741-3.326-.741-2.907 0-4.937 1.721-4.937 4.184 0 1.997 1.269 3.377 3.987 4.34 1.898.73 2.57 1.423 2.57 2.647 0 1.371-1.066 2.223-2.781 2.223-1.093 0-2.298-.34-3.223-.908l-.276-.17-.621 2.058.154.103c.854.568 2.431.966 3.837.966 3.93 0 5.324-2.382 5.324-4.421-.001-2.104-1.154-3.447-3.858-4.491zm13.179 0c-2.06-.797-2.721-1.419-2.721-2.562 0-.956.767-1.921 2.48-1.921a5.49 5.49 0 0 1 2.632.657l.261.143.678-2.004-.18-.103c-.489-.276-1.571-.741-3.326-.741-2.907 0-4.937 1.721-4.937 4.184 0 1.997 1.269 3.377 3.987 4.34 1.898.73 2.57 1.423 2.57 2.647 0 1.371-1.066 2.223-2.781 2.223-1.093 0-2.298-.34-3.223-.908l-.276-.17-.621 2.058.154.103c.854.568 2.431.966 3.837.966 3.93 0 5.324-2.382 5.324-4.421 0-2.104-1.154-3.447-3.858-4.491zm7.765-6.294h2.371v14.99h-2.371zm13.816 7.328l-1.433 4.533-1.339-4.549-2.313-7.313h-2.549l4.837 14.817.056.173h2.421l5.36-14.99h-2.532l-2.508 7.329zm11.215.869h5.633v-2.048h-5.633v-4.079h5.955v-2.07h-8.326v14.991h8.648v-2.07h-6.277zm20.972 1.599c0 2.771-.966 3.34-2.416 3.34-.51 0-1.049-.096-1.48-.263l-.281-.108-.37 2.022.188.077c.514.21 1.395.362 2.095.362 3.077 0 4.637-1.776 4.637-5.28v-9.946h-2.371v9.796zm10.511-9.796l-5.094 14.99h2.465l1.505-4.558h4.779l1.548 4.558h2.527l-5.115-14.99h-2.615zm3.097 8.471h-3.667l1.309-3.867.515-1.779.537 1.806 1.306 3.84zm15.56-6.638c1.049 0 2.048.205 2.814.576l.266.129.596-2.007-.184-.095c-.304-.158-1.458-.673-3.557-.673-4.675 0-7.816 3.159-7.816 7.86 0 4.605 2.908 7.581 7.408 7.581 1.85 0 3.248-.369 3.939-.714l.182-.091-.517-1.974-.274.133c-.731.355-1.859.576-2.943.576-3.33 0-5.318-2.085-5.318-5.576-.001-3.584 2.02-5.725 5.404-5.725zm17.388-1.833h-2.982l-4.509 5.536-.755 1.007v-6.543h-2.371v14.99h2.371v-5.683l1.101-1.272 4.664 6.955h2.82l-5.813-8.574 5.474-6.416zm7.104-.107c-1.301 0-2.489.093-3.633.282l-.209.035v14.78h2.371v-5.75c.401.063.837.074 1.256.074 1.963 0 3.601-.593 4.607-1.667.789-.813 1.189-1.913 1.189-3.27 0-1.32-.481-2.464-1.353-3.217-.932-.84-2.355-1.267-4.228-1.267zm3.211 4.571c0 1.809-1.233 2.846-3.383 2.846-.533 0-.96-.032-1.299-.1v-5.232c.356-.064.901-.102 1.514-.102 1.184 0 3.168.336 3.168 2.588zm12.494-4.7c-4.108 0-6.979 3.232-6.979 7.86 0 4.477 2.781 7.603 6.764 7.603 3.474 0 6.979-2.438 6.979-7.882.001-4.534-2.718-7.581-6.764-7.581zm-.107 13.436c-3.004 0-4.372-2.913-4.372-5.619 0-2.883 1.358-5.791 4.394-5.791 3.005 0 4.373 2.924 4.373 5.641-.001 2.872-1.359 5.769-4.395 5.769zm10.017-13.2v2.091h4.406v12.9h2.393v-12.9h4.43v-2.091z"/><linearGradient  gradientUnits="userSpaceOnUse" x1="952.806" y1="260.515" x2="952.806" y2="260.515"><stop offset="0" stop-color="#aa6c14"/><stop offset=".794" stop-color="#c49b3d"/><stop offset="1" stop-color="#cba848"/></linearGradient><g opacity=".4"><path d="M325.652 134.856s.019-.103.111-.248c.114-.18.402-.404 1.121-.507 0 0-.026-.635.979-.662l1.403-.662s2.039-1.218 3.68-.847c0 0 .159-.344.874-.423 0 0-.159-.49.228-.678s1.499.427 2.343-.189c0 0 .01-.447.407-.626 0 0 .324-.361 1.006-.328s.675.126.927.033l1.304-.45 2.125-.569 1.013-.265s.199-.066.278-.066 1.152-.351 1.152-.351 2.058-.695 2.853-.642l1.066.099 1.271-.397c.576-.199 1.502-.351 1.893-.258 0 0 .894-.834 2.244-.589l1.919-.318c.525-.159 1.12-.477 1.368-.546s.898-.298 1.787.199l1.936-.516c.601-.089 2.135-.422 4.731-.422 0 0 1.36-.273 1.976-.243s1.231-.04 2.735.342 3.118 1.246 3.738 1.579l2.01 1.186.313.318 4.771 1.583.017.004s.17.215.832.252c.521.051.643.127.792.241.18.153.247.368.273.447v.007l.032-.008s.417.288.572.977a1.01 1.01 0 0 0 .327.521c.082.334.069.69.069.69l.021.366s.271.237.336.48.044.417-.019.591c0 0-.106.286-.338.559 0 0-.043.434-.392.748-.364.327-.985.512-.985.512l-.322.619s.217.411.187.712-.14.417-.14.417-.153.226-.589.357c-.353.073-.536.155-.839.396l-.419.364s-.348.661-.661 1.013l-.294.338-.633.624-.665.576-1.51 1.26-.37.736c-.185.389-.464.69-.772.813-.292.099-.501.097-.501.097l-.327.443s.187.486-.004.976-.576.467-.576.467-.501.034-.796.411-.392.945-.538 1.106l-2.044 2.097-2.056 2.104s-.023.617-.381 1.013-.673.583-1.203.927c0 0-.052.441-.362.845s-.613.643-.613.643-.157.912-.262 1.103-.086.239-.37.501c0 0-.206.471-.695.744-.46.213-.904.172-.904.172l-.012.025s.161.374.075.714-.243.607-.243.607l-.405.733c-.056.157-.127.363-.613.585s-.589.318-.718.506l-.004.086s-.009.349-.135.641-.312.534-.583.796l-.805.749-.258.645c-.064.118-.226.536-.712.761l-.934 1.437s-.194.215-.286.525l-.099.29c-.021.056-.118.374-.312.564-.183.168-.299.204-.299.204s-.146.333-.295.561-.372.578-.667.869-.462.428-.615.542c0 0 .15.451-.072.867 0 0-.073.196-.307.475l-.407.475-.217.294c-.036.056-.65 1.205-.65 1.205l-.26.477s-.049.396-.376.818-.925.738-.925.738.034.118-.028.247c0 0 .153.312.106.645s-.295.693-.295.693l-.394.626c-.009.009-.135.138-.294.462s-.292.652-.725.805c0 0-.08.026-.187.036 0 0-.026.213-.209.488-.237.34-.592.364-.592.364s.206.355.036.805-.39.609-.598 1.114l-.635.51a1.53 1.53 0 0 0 .071.234c-.006.024-.056.091-.056.091s.103.297-.232.71-.536.669-.432 1.086c0 0-.047.486.28.959.228.316.647.542.647.542l1.084.564a.48.48 0 0 0 .235.159s.357.331.473.923l.078.761s.22.501-.091.847c-.262.248-.451.295-.725.447s-.294.189-.294.189-.112.538-.546.94c-.548.54-1.035.787-1.404 1.329-.073.114-.176.508-.635.934s-.845.622-1.355.878c0 0-.207.394-.639.897l-.805.931c-.062.08-.501.6-.691 1.104 0 0 .034.424-.258.678-.361.294-.985.299-1.286.576 0 0-.547 1.127-1.421 2.18l-1.216 1.281s-.486.715-1.564.948c-1.008.184-1.772-.169-2.502-.308-.71-.228-1.554-.323-2.795-.978 0 0-.57-.275-1.54-.854l-1.409-.809c-.116-.054-.527-.295-.532-.299s-.049-.021-.077-.007a4.13 4.13 0 0 1-.351.152c-.155.057-.337.114-.611.151s-.617.004-.91-.11c-.042-.015-.283-.113-.512-.285-.029-.025-.15-.109-.295-.239l-.311-.305-.233-.256-.462-.525-.354-.37-.244-.219s-.083-.213-.154-.47a4.63 4.63 0 0 1-.066-.409 3.56 3.56 0 0 1 0-.508l.046-.344c.017-.078.145-.573.216-.743l.309-.714.351-.766s.22-.46.344-.835l.368-.824.193-.508c.006-.058.088-.419.088-.419s-.112-.607.255-1.152c.222-.289.401-.379.401-.379s.214-.329.319-.83l.244-.658a1.34 1.34 0 0 1 .401-.436s-.11-.254.057-.596c0 0 .237-.284.444-.443s.376-.339.441-.558c.038-.214.057-.705.169-1.368.023-.15.242-1.328 1.101-1.754l.303-.172s-.4-.138-.325-.635c.015-.112.052-.187.052-.187s.123-.172.478-.86c0 0 .211-.447.74-.534 0 0-.126-.106-.167-.159s-.122-.165-.097-.344.173-.377.189-.411.108-.197.128-.24l.301-.611.307-.465.548-.84c.015-.041.047-.227.064-.405.019-.146.082-.308.132-.36s.064-.095.23-.181c0 0 .055-.436.143-.589a.64.64 0 0 1 .426-.334l.277-.322.06-.613.051-.538.049-.525.373-.314.741-.626.213-.679c.014-.06.22-.715.25-.78s.192-.519.336-.753c.032-.06.194-.336.35-.527.073-.075.186-.229.44-.437l.269-.406.386-.586.416-.628.6-.911c.028-.055.239-.354.262-.396l.298-.784c.01-.015.218-.487.43-.714.04-.049.302-.325.596-.449.054-.015.196-.086.305-.111 0 0 .157-.08.26-.077 0 0-.264-.678-.111-1.207 0 0 .101-.402.417-.703s.484-.402.974-.639c0 0 .013-.211.058-.277 0 0 .062-.529.29-.947 0 0 .193-.394.475-.764l.749-.893s.037-.402.394-.772l.578-.551s-.019-.058-.013-.078.017-.103.017-.103l.045-.31s.148-.488.379-.74.419-.299.557-.342c0 0-.163-.355-.091-.551s.267-.252.267-.252.174-.069.51-.155c.348-.08.424-.512.424-.512l.099-.437s.075-.295.299-.434l.078-.039.779-.897.428-.497.43-.564s-.086-.165.019-.263c.096-.074.159-.095.159-.095l.789-.897.295-.74c.125-.351.325-.673.619-.903 0 0 .103-.39.633-.574l.284-.43.609-.912s.08-.374.325-.572.344-.234.891-.46.707-.445.731-.499c0 0-.027-.827.135-1.129 0 0 .13-.267.172-.294l.755-.69.516-.461s-.082-.511.488-.805.409-.13.82-.458l.648-.892.296-.419s.296-.436.551-.68c.204-.229.456-.478.81-.785s.825-.825 1.032-1.114.389-.728.469-.952c0 0-2.477.618-3.718.718 0 0-2.105.308-3.038.606l-2.363.556-2.651.497c-1.181.159-4.08 1.152-4.408 1.211s-1.529.536-3.008.705c-1.4.278-2.631 1.439-3.971 1.688 0 0-.447.02-.596.07s-.288.155-.418.155-1.544-.273-1.622-.299-2.142-.437-2.171-.437c0 0-.277-.519-1.013-.837-.688-.262-1.237-.004-1.697-.419 0 0-.191-.183-.206-.527 0 0-.307-.591-.803-.635s-.718.602-1.387.531c-.673-.09-.77-1.155-1.054-1.432 0 0-.052-.108-.247-.193-.215-.135-.609-.436-.841-.809s-.284-.699-.284-.699-.116-.588-.101-.937l.012-.309-.005-.008m-63.116 0s.019-.103.111-.248c.114-.18.402-.404 1.121-.507 0 0-.026-.635.979-.662l1.403-.662s2.039-1.218 3.68-.847c0 0 .159-.344.874-.423 0 0-.159-.49.228-.678s1.499.427 2.343-.189c0 0 .01-.447.407-.626 0 0 .324-.361 1.006-.328s.675.126.927.033l1.304-.45 2.125-.569 1.013-.265s.199-.066.278-.066 1.152-.351 1.152-.351 2.058-.695 2.853-.642l1.066.099 1.271-.397c.576-.199 1.502-.351 1.893-.258 0 0 .894-.834 2.244-.589l1.92-.318c.525-.159 1.12-.477 1.368-.546s.898-.298 1.787.199l1.936-.516c.601-.089 2.135-.422 4.731-.422 0 0 1.36-.273 1.976-.243s1.231-.04 2.735.342 3.118 1.246 3.738 1.579l2.01 1.186.313.318 4.771 1.583.017.004s.17.215.832.252c.521.051.643.127.792.241.18.153.247.368.273.447v.007l.032-.008s.417.288.572.977a1.01 1.01 0 0 0 .327.521c.082.335.069.69.069.69l.021.366s.271.237.336.48.044.417-.019.591c0 0-.106.286-.338.559 0 0-.043.434-.392.748-.364.327-.985.512-.985.512l-.322.619s.217.411.187.712-.14.417-.14.417-.153.226-.589.357c-.353.073-.536.155-.839.396l-.419.364s-.348.661-.661 1.013l-.294.338-.633.624-.665.576-1.51 1.26-.37.736c-.185.389-.464.69-.772.813-.292.099-.501.097-.501.097l-.327.443s.187.486-.004.976-.576.467-.576.467-.501.034-.796.411-.392.945-.538 1.106l-2.044 2.097-2.056 2.104s-.023.617-.381 1.013-.673.583-1.203.927c0 0-.052.441-.362.845s-.613.643-.613.643-.157.912-.262 1.103-.086.239-.37.501c0 0-.206.471-.695.744-.46.213-.904.172-.904.172l-.012.025s.161.374.075.714-.247.607-.247.607l-.405.733c-.056.157-.127.363-.613.585s-.589.318-.718.506l-.004.086s-.009.349-.135.641-.312.534-.583.796l-.805.749-.258.645c-.064.118-.226.536-.712.761l-.934 1.437s-.194.215-.286.525l-.099.29c-.021.056-.118.374-.312.564-.183.168-.299.204-.299.204s-.146.333-.295.561-.372.578-.667.869-.462.428-.615.542c0 0 .15.451-.072.867 0 0-.073.196-.307.475l-.407.475-.217.294c-.036.056-.65 1.205-.65 1.205l-.26.477s-.049.396-.376.818-.925.738-.925.738.034.118-.028.247c0 0 .153.312.106.645s-.295.693-.295.693l-.394.626c-.009.009-.135.138-.294.462s-.292.652-.725.805c0 0-.08.026-.187.036 0 0-.026.213-.209.488-.237.34-.593.364-.593.364s.206.355.036.805-.39.609-.598 1.114l-.635.51a1.53 1.53 0 0 0 .071.234c-.006.024-.056.091-.056.091s.103.297-.232.71-.536.669-.432 1.086c0 0-.047.486.28.959.228.316.647.542.647.542l1.084.564a.48.48 0 0 0 .235.159s.357.331.473.923l.078.761s.22.501-.091.847c-.262.248-.451.295-.725.447s-.294.189-.294.189-.112.538-.546.94c-.548.54-1.035.787-1.404 1.329-.073.114-.176.508-.635.934s-.845.622-1.355.878c0 0-.207.394-.639.897l-.805.931c-.062.08-.501.6-.691 1.104 0 0 .034.424-.258.678-.361.294-.985.299-1.286.576 0 0-.547 1.127-1.421 2.18l-1.216 1.281s-.486.715-1.564.948c-1.008.184-1.772-.169-2.502-.308-.71-.228-1.554-.323-2.795-.978 0 0-.57-.275-1.54-.854l-1.409-.809c-.116-.054-.527-.295-.532-.299s-.049-.021-.077-.007a4.13 4.13 0 0 1-.351.152c-.155.057-.337.114-.611.151s-.617.004-.91-.11c-.042-.015-.283-.113-.512-.285-.029-.025-.15-.109-.295-.239l-.311-.305-.233-.256-.462-.525-.354-.37-.244-.219s-.083-.213-.154-.47a5.04 5.04 0 0 1-.066-.409 3.56 3.56 0 0 1 0-.508l.046-.344c.017-.078.145-.573.216-.743l.308-.714.351-.766s.22-.46.344-.835l.368-.824.193-.508c.006-.058.088-.419.088-.419s-.112-.607.255-1.152c.222-.289.401-.379.401-.379s.214-.329.319-.83l.244-.658a1.33 1.33 0 0 1 .401-.436s-.11-.254.057-.596c0 0 .237-.284.444-.443s.376-.339.441-.558c.038-.214.057-.705.169-1.368.023-.15.242-1.328 1.101-1.754l.303-.172s-.4-.138-.325-.635c.015-.112.052-.187.052-.187s.123-.172.478-.86c0 0 .211-.447.74-.534 0 0-.126-.106-.167-.159s-.122-.165-.097-.344.173-.377.189-.411.108-.197.128-.24l.301-.611.307-.465.548-.84c.015-.041.047-.227.064-.405.019-.146.082-.308.132-.36s.064-.095.23-.181c0 0 .055-.436.143-.589a.64.64 0 0 1 .426-.334l.277-.322.06-.613.051-.538.049-.525.373-.314.741-.626.213-.679c.014-.06.22-.715.25-.78s.192-.519.336-.753c.032-.06.194-.336.35-.527.073-.075.186-.229.44-.437l.269-.406.386-.586.416-.628.6-.911c.029-.055.239-.354.262-.396l.298-.784c.01-.015.218-.487.43-.714.04-.049.302-.325.596-.449.054-.015.196-.086.305-.111 0 0 .157-.08.261-.077 0 0-.264-.678-.111-1.207 0 0 .101-.402.417-.703s.484-.402.974-.639c0 0 .013-.211.058-.277 0 0 .062-.529.29-.947 0 0 .193-.394.475-.764l.749-.893s.037-.402.394-.772l.578-.551s-.019-.058-.013-.078.017-.103.017-.103l.045-.31s.148-.488.379-.74.419-.299.557-.342c0 0-.163-.355-.091-.551s.267-.252.267-.252.174-.069.51-.155c.348-.08.424-.512.424-.512l.099-.437s.075-.295.299-.434l.078-.039.779-.897.428-.497.43-.564s-.086-.165.019-.263c.096-.074.159-.095.159-.095l.789-.897.295-.74c.125-.351.325-.673.619-.903 0 0 .103-.39.633-.574l.284-.43.609-.912s.08-.374.325-.572.344-.234.891-.46.707-.445.731-.499c0 0-.027-.827.135-1.129 0 0 .13-.267.172-.294l.755-.69.516-.461s-.082-.511.488-.805.409-.13.82-.458l.648-.892.296-.419s.296-.436.551-.68c.204-.229.456-.478.81-.785s.825-.825 1.032-1.114.389-.728.469-.952c0 0-2.477.618-3.718.718 0 0-2.105.308-3.038.606l-2.363.556-2.651.497c-1.182.159-4.081 1.152-4.408 1.211s-1.529.536-3.008.705c-1.4.278-2.631 1.439-3.971 1.688 0 0-.447.02-.596.07s-.288.155-.418.155-1.544-.273-1.622-.299-2.142-.437-2.171-.437c0 0-.277-.519-1.013-.837-.688-.262-1.237-.004-1.697-.419 0 0-.191-.183-.206-.527 0 0-.307-.591-.803-.635s-.718.602-1.387.531c-.673-.09-.77-1.155-1.054-1.432 0 0-.052-.108-.247-.193-.215-.135-.609-.436-.841-.809s-.284-.699-.284-.699-.116-.588-.101-.937l.012-.309-.001-.008" class="G"/><path d="M796.43 198.592l-29.014-13.556 8.126-4.081 8.076 4.02 10.807 5.733z" class="C"/><path d="M775.542 180.955l-8.126 4.081 5.187-11.118z" class="B"/><path d="M783.886 139.145l-.268 45.831-8.075-4.02-2.939-7.038 5.023 2.066v-31.003h-10.219l5.585-5.836c-.001 0 4.469 0 10.893 0z" class="D"/><path d="M772.992 139.145l-5.585 5.836v-11.992z" class="C"/><path d="M783.937 130.897l-.052 8.248h-10.893l-5.585-6.156h10.012l.017-9.735 6.501 7.643zm43.298 67.376h-12.752l6.907-6.096zm-24.9-10.963l-5.905 11.282-2.005-7.884z" class="B"/><path d="M821.39 148.681v43.496l-6.908 6.095v-46.643a6.73 6.73 0 0 0-6.735-6.726h-17.464v37.012l12.052 5.395-7.911 3.398-10.807-5.732.268-45.831h23.387c15.848 0 14.118 9.536 14.118 9.536z" class="C"/><path d="M827.235 148.992v49.28l-5.844-6.095v-43.496s1.729-9.536-14.118-9.536h-23.387l.052-8.248-6.502-7.643h13.02v9.536h20.568c8.949 0 16.211 7.254 16.211 16.202z" class="D"/><path d="M717.521 201.238l-3.13.242c-13.15.562-22.505-4.893-24.268-5.957-2.075-1.254-9.752-6.121-15.208-15.882-.934-1.669-4.867-8.966-5.516-19.34-.536-8.481 1.383-14.819 1.902-16.444.787-2.455 2.862-8.161 7.669-14.092 3.424-4.245 7.046-7.081 9.692-8.862-1.47 1.219-17.931 15.242-16.556 35.171 1.444 20.862 17.058 31.522 28.557 32.957 10.409 1.296 15.916 10.478 16.858 12.207z" fill="#876008"/><path d="M717.643 201.221c-.043.009-.078.009-.121.017-.942-1.729-6.45-10.911-16.859-12.208-11.499-1.435-27.113-12.095-28.557-32.957-1.375-19.928 15.087-33.951 16.556-35.171.026-.017.043-.035.06-.043.035-.017.052-.035.052-.035.121.164.32.493.398.951a2.33 2.33 0 0 1-.078 1.072c-1.772 1.409-4.055 3.432-6.355 6.199-1.305 1.565-3.588 4.349-5.438 8.378-3.112 6.761-3.087 12.899-3.017 14.853.121 3.839.346 10.548 5.196 16.28 3.329 3.925 6.648 5.3 7.392 5.559.986.355 6.173 2.205 8.853-.233.216-.199.372-.38.475-.519.001 0 20.051 14.767 21.443 27.857z" class="G"/><path d="M762.453 144.159c-1.582 3.553-13.401-2.395-17.438-6.432-4.037-4.029-6.337 3.458-14.689-1.643-8.352-5.092-27.095-2.386-30.286 5.101-3.19 7.496.311 18.156 15.562 31.029 2.161 1.824 3.752 3.718 4.893 5.628 6.216 10.444-1.081 21.312-2.568 23.343-.095.017-.19.026-.285.035-1.392-13.09-21.441-27.856-21.441-27.856a29.8 29.8 0 0 1-6.035-6.553c-.484-.718-2.239-3.389-3.614-7.383-.916-2.671-2.516-7.496-1.79-13.747.882-7.574 4.634-12.597 5.525-13.738.83-1.072 5.248-6.588 13.02-9.13 4.228-1.383 8.006-1.409 10.211-1.435 3.043-.026 5.585.303 7.427.64-1.202-1.504-2.594-3.545-3.778-6.156a29.12 29.12 0 0 1-2.455-9.294c1.297 2.473 3.294 5.654 6.268 8.896 2.905 3.164 5.836 5.378 8.144 6.873a42.5 42.5 0 0 1-1.746-8.421 42.38 42.38 0 0 1 .121-9.847 43.59 43.59 0 0 0 3.329 11.092 43.83 43.83 0 0 0 4.236 7.357c1.254 1.055 2.559 2.118 3.925 3.173a123.1 123.1 0 0 0 10.556 7.366l-.078 3.735c1.245 1.28 3.017 2.87 5.404 4.297 2.913 1.748 5.637 2.621 7.582 3.07z" fill="#876008"/><path d="M754.62 166.967c-.268 1.375-1.409 6.942-5.161 13.306-1.772 3.009-6.095 10.133-14.931 15.407-1.409.847-7.565 4.401-16.6 5.507 1.487-2.032 8.784-12.899 2.568-23.343.432-.052 13.383-1.599 20.127 1.963 0 0 11.94-5.473 14.378-20.957.026-.112.043-.225.061-.337.095-.579.156-1.098.19-1.548.155 2.48.146 5.955-.632 10.002z" fill="#7f5909"/><path d="M760.611 150.401c-2.006 2.914-4.85 3.856-5.689 4.098v-2.092c.259-.182.942-.726 1.219-1.695.104-.372.303-1.046 0-1.556-.709-1.202-3.545-.571-3.839-.51-.7.156-2.014.562-3.363 1.781 0-.744-.052-4.28-2.542-6.225-.7-.545-1.366-.787-1.617-.873-1.937-.648-4.081-.121-5.559 1.029-.398.311-.977.847-1.478 1.695a8.73 8.73 0 0 0 3.545 2.758c1.729.726 3.268.718 4.046.657-.052.182-.493 1.816.493 2.905.078.078.363.38.839.579 1.47.614 3.052-.493 3.225-.623-.121.934-.493 2.602-1.746 4.159-2.749 3.424-7.262 3.208-7.781 3.173l-.043-2.179c.043-.372.104-1.452-.553-2.542-.476-.787-1.098-1.202-1.47-1.435-3.553-2.213-6.432-2.94-6.432-2.94-3.873-.968-7.556-1.461-10.608-1.703l.164-2.3c.813-.804 1.695-1.781 2.542-2.983.372-.527.7-1.046.994-1.548-1.331-.043-6.251-.147-9.856 1.427-1.193.519-1.988 1.115-2.455 1.513-.795.666-2.049 1.72-2.386 3.337-.259 1.271.164 2.343.441 3.017 1.608 3.934 6.45 6.821 7.98 7.738 6.268 3.769 8.308 4.53 11.87 6.718 2.421 1.487 5.689 3.718 9.294 6.951 1.876-.337 4.945-1.124 8.101-3.259.865-.588 2.334-1.599 3.735-3.294 2.058-2.49 2.931-5.231 3.32-7.332-2.438 15.484-14.378 20.957-14.378 20.957-6.744-3.562-19.695-2.014-20.127-1.963-1.141-1.911-2.732-3.804-4.893-5.628-15.251-12.873-18.752-23.533-15.562-31.029 3.19-7.487 21.934-10.193 30.286-5.101 8.352 5.101 10.651-2.386 14.689 1.643 4.038 4.038 15.856 9.986 17.438 6.432a10.58 10.58 0 0 1-1.844 6.243z" class="G"/><path d="M663.417 163.967v12.225h-7.202v21.874h-12.761v-3.19s-15.502.51-28.124-11.404c-10.262-8.974-12.856-19.617-13.176-24.649v-25.254h38.447l-2.94-5.084 9.951 4.236 2.014 6.77h-40.903v21.095s6.078 25.271 34.297 28.444h6.605v-18.735h-7.219l-6.363-6.329h27.374z" class="C"/><path d="M661.671 151.629l.441.951-9.26 5.118-.597-.709-.951.51-5.196-11.041-.138-.277h-31.877v10.79s3.156 22.453 29.361 25.522v-6.355h-7.409l6.363-5.844h7.219v18.735h-6.605c-28.219-3.173-34.297-28.444-34.297-28.444V139.49h40.903l-2.014-6.77 1.824-9.605 13.107 27.951-.874.563z" class="D"/><path d="M642.408 170.295l-6.363 5.845v-12.173z" class="B"/><path d="M599.768 193.388l-22.34-47.914h11.438v-12.337h-17.162l-4.444-9.951-10.271 4.651 2.594 5.404h-12.761l7.453 6.216-7.453 6.285h18.372l25.047 54.269 9.527-5.404-.527-.899.527-.32zm-32.422-14.698l-6.597 6.285h12.173v-12.761l-5.576 6.476zm-12.951-16.219l-1.989-9-18.666 40.583.476.078-.476.873 9.847 4.375 18.744-41.387-7.936 4.478z" class="D"/><path d="M567.346 178.69l-6.596 6.285v-12.761zm-13.072-39.234l-7.452 6.285V133.24z" class="B"/><path d="M562.332 157.992l-7.937 4.479-1.988-9z" class="C"/><path d="M515.057 146.667s-8.378 17.577-20.706 25.548l-4.427 10.115-.597-.631-.873.432-3.856-11.041.441-.156-.597-1.115s17.672-8.974 22.911-24.381H482.22v31.332s-.043 11.758-4.928 20.81h-13.107l9.649-8.844s2.3-3.458 2.3-8.931v-40.349h36.312l2.611 7.211z" class="D"/><g class="B"><path d="M476.135 139.456v40.349c0 5.472-2.3 8.931-2.3 8.931l-9.649 8.844v-1.548s5.758-11.481 5.758-16.643v-33.995h-8.3l5.853-5.94h8.638z"/><path d="M467.498 139.456l-5.853 5.94v-12.502z"/></g><path d="M517.521 132.773l-5.075 6.683h-44.948l-5.853-6.562h8.541v-10.565l5.949 5.602 6.121-5.602v10.444z" class="C"/><path d="M482.256 122.329l-6.121 5.602-5.949-5.602zm42.217 69.174l.631.674-10.928-1.47-19.825-18.493c12.329-7.971 20.706-25.548 20.706-25.548l-2.611-7.21 5.075-6.683 3.718 9.925c.942 2.525.752 5.334-.519 7.721l-1.729 3.242s-4.366 9.649-13.505 17.75l19.617 19.617-.63.475z" class="B"/><g class="C"><path d="M525.104 192.177l-7.859 7.194-1.038-.874-.709.631-1.322-8.42z"/><path d="M515.498 199.128l-20.179-19.651-5.395 2.853 4.427-10.116 19.825 18.494zm-109.402-59.672v23.672l-6.527 5.55v-35.957z"/></g><path d="M452.411 132.721l-7.366 6.735h-38.949l-6.527-6.735zm-40.816 36.009l-12.026-.052 6.527-5.55z" class="B"/><path d="M452.411 132.721v22.885a28.55 28.55 0 0 1-.285 4.029c-.597 4.202-2.3 12.934-6.502 17.871-5.801 7.427-14.896 17.196-33.476 18.865-5.404.476-12.83.553-12.83.553l7.064-5.732c23.611-1.426 33.658-15.882 37.124-22.764 1.012-2.014 1.539-4.236 1.539-6.493v-22.479l7.366-6.735z" class="C"/><path d="M406.382 191.192l-7.064 5.732v-12.433z" class="B"/><path d="M445.045 139.456v22.479a14.46 14.46 0 0 1-1.539 6.493c-3.467 6.882-13.513 21.337-37.124 22.764l-7.064-6.7 6.796-.199s9.329-.233 17.075-4.6c7.738-4.375 13.141-9.562 14.966-14.871 1.833-5.308 1.963-7.141 1.989-8.447v-11.153h-28.548v23.508l-5.499-5.602v-23.672h38.948z" class="D"/><path d="M562.332 157.992l-18.744 41.387-2.127-7.202 12.934-29.706z" class="B"/><path d="M565.194 145.741h6.033l21.588 46.436-2.575 7.833m-22.228-60.554h-13.738l-7.452-6.216h12.761l-2.594-5.404 6.769.095z" class="C"/><path d="M588.865 133.136l-7.231 6.32 7.231 6.017" class="B"/><path d="M572.923 172.214l-5.577 6.476-6.596-6.476z" class="C"/><path d="M649.437 123.116l-1.824 9.605-9.951-4.236.423-.208z" class="B"/></g></svg>